<?xml version="1.0" standalone="no"?>
<!-- Generator: Adobe Fireworks 10, Export SVG Extension by Aaron Beall (http://fireworks.abeall.com) . Version: 0.6.1  -->
<!DOCTYPE svg PUBLIC "-//W3C//DTD SVG 1.1//EN" "http://www.w3.org/Graphics/SVG/1.1/DTD/svg11.dtd">
<svg id="Untitled-Seite%201" viewBox="0 0 392 67" style="background-color:#ffffff00" version="1.1"
	xmlns="http://www.w3.org/2000/svg" xmlns:xlink="http://www.w3.org/1999/xlink" xml:space="preserve"
	x="0px" y="0px" width="392px" height="67px"
>
	<g>
		<path d="M 91.1949 43.2877 L 93.2608 43.2877 L 93.2608 36.9406 C 93.7272 37.0447 94.2868 37.0655 94.8931 37.0655 C 96.8752 37.0655 98.6241 36.5451 99.7129 35.5054 C 100.5201 34.6071 100.9479 33.3751 100.9479 31.8095 C 100.9479 30.2695 100.4252 29.0119 99.5468 28.2484 C 98.6007 27.488 97.1317 27.0656 95.1263 27.0656 C 93.494 27.0656 92.192 27.1922 91.1949 27.3401 L 91.1949 43.2877 L 91.1949 43.2877 ZM 93.2608 28.7039 C 93.6106 28.6012 94.2868 28.523 95.1729 28.523 C 97.4115 28.523 98.882 29.6279 98.882 31.9122 C 98.882 34.2991 97.3882 35.6081 94.9398 35.6081 C 94.2635 35.6081 93.7039 35.5568 93.2608 35.4284 L 93.2608 28.7039 L 93.2608 28.7039 Z" fill="#272727"/>
		<path d="M 108.1065 43.2877 L 110.1724 43.2877 L 110.1724 36.2921 L 112.0845 36.2921 C 113.9267 36.3638 114.7661 37.2023 115.2325 39.4304 C 115.6755 41.4429 116.031 42.8325 116.2921 43.2877 L 118.4129 43.2877 C 118.0901 42.6648 117.7166 41.1075 117.1943 38.8554 C 116.8144 37.1783 116.0785 36.0492 114.8594 35.6516 L 114.8594 35.5854 C 116.5295 35.0554 117.8595 33.6171 117.8595 31.4057 C 117.8595 30.1136 117.4079 28.9706 116.6008 28.262 C 115.6056 27.4354 114.2065 27.0656 112.0379 27.0656 C 110.6388 27.0656 109.1511 27.1744 108.1065 27.3702 L 108.1065 43.2877 L 108.1065 43.2877 ZM 110.1724 28.7221 C 110.4989 28.6227 111.1984 28.523 112.1778 28.523 C 114.3231 28.5482 115.7936 29.4924 115.7936 31.6541 C 115.7936 33.5674 114.4163 34.8346 112.2477 34.8346 L 110.1724 34.8346 L 110.1724 28.7221 L 110.1724 28.7221 Z" fill="#272727"/>
		<path d="M 131.544 27.0656 C 127.2982 27.0656 124.21 30.1779 124.21 35.3177 C 124.21 40.2172 127.1094 43.2838 131.3081 43.2838 C 135.3653 43.2838 138.6424 40.5775 138.6424 35.0054 C 138.6424 30.2019 135.8842 27.0656 131.544 27.0656 L 131.544 27.0656 ZM 131.4496 28.523 C 134.8699 28.523 136.5209 31.8831 136.5209 35.1015 C 136.5209 38.7762 134.6812 41.8264 131.4261 41.8264 C 128.1945 41.8264 126.3546 38.7281 126.3546 35.2696 C 126.3546 31.715 128.053 28.523 131.4496 28.523 L 131.4496 28.523 Z" fill="#272727"/>
		<path d="M 148.0793 43.2877 L 150.1452 43.2877 L 150.1452 28.523 L 154.8956 28.523 L 154.8956 27.0656 L 143.3519 27.0656 L 143.3519 28.523 L 148.0793 28.523 L 148.0793 43.2877 L 148.0793 43.2877 Z" fill="#272727"/>
		<path d="M 166.9046 27.0656 C 162.6587 27.0656 159.5706 30.1779 159.5706 35.3177 C 159.5706 40.2172 162.47 43.2838 166.6686 43.2838 C 170.7258 43.2838 174.003 40.5775 174.003 35.0054 C 174.003 30.2019 171.2448 27.0656 166.9046 27.0656 L 166.9046 27.0656 ZM 166.8102 28.523 C 170.2305 28.523 171.8814 31.8831 171.8814 35.1015 C 171.8814 38.7762 170.0418 41.8264 166.7866 41.8264 C 163.555 41.8264 161.7152 38.7281 161.7152 35.2696 C 161.7152 31.715 163.4135 28.523 166.8102 28.523 L 166.8102 28.523 Z" fill="#272727"/>
		<path d="M 183.4398 43.2877 L 185.5057 43.2877 L 185.5057 28.523 L 190.2562 28.523 L 190.2562 27.0656 L 178.7125 27.0656 L 178.7125 28.523 L 183.4398 28.523 L 183.4398 43.2877 L 183.4398 43.2877 Z" fill="#272727"/>
		<path d="M 203.186 43.2877 L 203.186 36.3776 L 208.3976 27.0617 L 206.1147 27.0617 L 203.8778 31.5382 C 203.2783 32.7661 202.7396 33.8255 202.2936 34.8849 L 202.2467 34.8849 C 201.7538 33.7533 201.2844 32.7661 200.6819 31.5382 L 198.4912 27.0617 L 196.2083 27.0617 L 201.1201 36.4017 L 201.1201 43.2877 L 203.186 43.2877 L 203.186 43.2877 Z" fill="#272727"/>
		<path d="M 214.1881 43.2877 L 216.254 43.2877 L 216.254 36.9406 C 216.7204 37.0447 217.2801 37.0655 217.8863 37.0655 C 219.8684 37.0655 221.6172 36.5451 222.7061 35.5054 C 223.5133 34.6071 223.9411 33.3751 223.9411 31.8095 C 223.9411 30.2695 223.4184 29.0119 222.5399 28.2484 C 221.5939 27.488 220.1249 27.0656 218.1195 27.0656 C 216.4872 27.0656 215.1852 27.1922 214.1881 27.3401 L 214.1881 43.2877 L 214.1881 43.2877 ZM 216.254 28.7039 C 216.6038 28.6012 217.2801 28.523 218.1661 28.523 C 220.4047 28.523 221.8752 29.6279 221.8752 31.9122 C 221.8752 34.2991 220.3814 35.6081 217.933 35.6081 C 217.2567 35.6081 216.6971 35.5568 216.254 35.4284 L 216.254 28.7039 L 216.254 28.7039 Z" fill="#272727"/>
		<path d="M 239.2074 34.0574 L 233.1656 34.0574 L 233.1656 28.523 L 239.5533 28.523 L 239.5533 27.0656 L 231.0997 27.0656 L 231.0997 43.2838 L 239.8992 43.2838 L 239.8992 41.8264 L 233.1656 41.8264 L 233.1656 35.5148 L 239.2074 35.5148 L 239.2074 34.0574 L 239.2074 34.0574 Z" fill="#272727"/>
		<path d="M 266.6812 34.8346 L 261.4558 34.8346 L 261.4558 36.2921 L 264.6153 36.2921 L 264.6153 41.3715 C 264.1524 41.6242 263.2535 41.8264 261.9398 41.8264 C 258.3212 41.8264 255.9471 39.2737 255.9471 35.1889 C 255.9471 31.0578 258.4134 28.523 262.1933 28.523 C 263.7606 28.523 264.8098 28.8463 265.6847 29.2439 L 266.1951 27.6847 C 265.4903 27.4052 264.0372 27.0656 262.2394 27.0656 C 257.0305 27.0656 253.8486 30.3621 253.8256 35.2721 C 253.8256 37.7066 254.6558 39.9813 255.9933 41.3967 C 257.5145 42.7574 259.4505 43.2838 261.8015 43.2838 C 263.8989 43.2838 265.7333 42.8182 266.6812 42.5347 L 266.6812 34.8346 L 266.6812 34.8346 Z" fill="#272727"/>
		<path d="M 280.1027 34.0574 L 274.0609 34.0574 L 274.0609 28.523 L 280.4485 28.523 L 280.4485 27.0656 L 271.995 27.0656 L 271.995 43.2838 L 280.7945 43.2838 L 280.7945 41.8264 L 274.0609 41.8264 L 274.0609 35.5148 L 280.1027 35.5148 L 280.1027 34.0574 L 280.1027 34.0574 Z" fill="#272727"/>
		<path d="M 288.3588 43.2877 L 288.3588 36.3536 C 288.3588 33.4767 288.3085 31.49 288.1825 29.4051 L 288.2581 29.378 C 289.0541 31.1711 290.0971 33.0597 291.1865 34.8993 L 296.1465 43.2877 L 298.352 43.2877 L 298.352 27.1433 L 296.2861 27.1433 L 296.2861 33.6729 C 296.2861 36.6178 296.3365 38.6427 296.538 40.8651 L 296.4876 40.8898 C 295.7292 39.1859 294.8253 37.4327 293.6664 35.4819 L 288.6601 27.0617 L 286.2929 27.0617 L 286.2929 43.1245 L 288.3588 43.2877 L 288.3588 43.2877 Z" fill="#272727"/>
		<path d="M 312.5421 34.0574 L 306.5003 34.0574 L 306.5003 28.523 L 312.888 28.523 L 312.888 27.0656 L 304.4344 27.0656 L 304.4344 43.2838 L 313.2339 43.2838 L 313.2339 41.8264 L 306.5003 41.8264 L 306.5003 35.5148 L 312.5421 35.5148 L 312.5421 34.0574 L 312.5421 34.0574 Z" fill="#272727"/>
		<path d="M 318.7324 43.2877 L 320.7982 43.2877 L 320.7982 36.2921 L 322.7104 36.2921 C 324.5525 36.3638 325.392 37.2023 325.8583 39.4304 C 326.3014 41.4429 326.6568 42.8325 326.918 43.2877 L 329.0388 43.2877 C 328.7159 42.6648 328.3424 41.1075 327.8201 38.8554 C 327.4403 37.1783 326.7043 36.0492 325.4852 35.6516 L 325.4852 35.5854 C 327.1554 35.0554 328.4853 33.6171 328.4853 31.4057 C 328.4853 30.1136 328.0338 28.9706 327.2266 28.262 C 326.2314 27.4354 324.8323 27.0656 322.6637 27.0656 C 321.2646 27.0656 319.7769 27.1744 318.7324 27.3702 L 318.7324 43.2877 L 318.7324 43.2877 ZM 320.7982 28.7221 C 321.1247 28.6227 321.8242 28.523 322.8036 28.523 C 324.9489 28.5482 326.4194 29.4924 326.4194 31.6541 C 326.4194 33.5674 325.0422 34.8346 322.8736 34.8346 L 320.7982 34.8346 L 320.7982 28.7221 L 320.7982 28.7221 Z" fill="#272727"/>
		<path d="M 342.1359 38.6239 L 343.792 43.2877 L 345.9302 43.2877 L 340.6407 27.0617 L 338.2256 27.0617 L 332.9582 43.2877 L 335.0284 43.2877 L 336.6385 38.6239 L 342.1359 38.6239 L 342.1359 38.6239 ZM 337.0525 37.1665 L 338.5706 32.1662 C 338.8696 30.7314 339.1227 29.6135 339.3527 28.523 L 339.3987 28.523 C 339.6287 29.5862 339.8587 30.6769 340.2037 31.8767 L 341.7218 37.1665 L 337.0525 37.1665 L 337.0525 37.1665 Z" fill="#272727"/>
		<path d="M 351.9405 43.2877 L 354.0064 43.2877 L 354.0064 28.523 L 358.7568 28.523 L 358.7568 27.0656 L 347.2131 27.0656 L 347.2131 28.523 L 351.9405 28.523 L 351.9405 43.2877 L 351.9405 43.2877 Z" fill="#272727"/>
		<path d="M 368.9209 27.0656 C 364.675 27.0656 361.5869 30.1779 361.5869 35.3177 C 361.5869 40.2172 364.4863 43.2838 368.685 43.2838 C 372.7421 43.2838 376.0193 40.5775 376.0193 35.0054 C 376.0193 30.2019 373.2611 27.0656 368.9209 27.0656 L 368.9209 27.0656 ZM 368.8265 28.523 C 372.2468 28.523 373.8977 31.8831 373.8977 35.1015 C 373.8977 38.7762 372.058 41.8264 368.8029 41.8264 C 365.5714 41.8264 363.7315 38.7281 363.7315 35.2696 C 363.7315 31.715 365.4298 28.523 368.8265 28.523 L 368.8265 28.523 Z" fill="#272727"/>
		<path d="M 381.3051 43.2877 L 383.371 43.2877 L 383.371 36.2921 L 385.2831 36.2921 C 387.1252 36.3638 387.9647 37.2023 388.4311 39.4304 C 388.8741 41.4429 389.2296 42.8325 389.4907 43.2877 L 391.6115 43.2877 C 391.2887 42.6648 390.9152 41.1075 390.3929 38.8554 C 390.0131 37.1783 389.2771 36.0492 388.058 35.6516 L 388.058 35.5854 C 389.7281 35.0554 391.0581 33.6171 391.0581 31.4057 C 391.0581 30.1136 390.6066 28.9706 389.7994 28.262 C 388.8042 27.4354 387.4051 27.0656 385.2365 27.0656 C 383.8374 27.0656 382.3497 27.1744 381.3051 27.3702 L 381.3051 43.2877 L 381.3051 43.2877 ZM 383.371 28.7221 C 383.6974 28.6227 384.397 28.523 385.3764 28.523 C 387.5217 28.5482 388.9922 29.4924 388.9922 31.6541 C 388.9922 33.5674 387.6149 34.8346 385.4464 34.8346 L 383.371 34.8346 L 383.371 28.7221 L 383.371 28.7221 Z" fill="#272727"/>
	</g>
	<path d="M 13.83 31.0715 L 13.83 31.0715 L 13.83 59.3959 C 18.9911 63.0296 25.2498 65.1619 32.0003 65.1619 C 49.6736 65.1619 64 50.5747 64 32.581 C 64 14.5866 49.6736 0 32.0003 0 C 14.7312 0 0.6648 13.9295 0.0304 31.3548 L 0 31.3548 L 0 67 L 6.664 67 L 6.664 32.411 L 6.676 32.411 C 6.7663 18.2473 18.068 6.793 32.0003 6.793 C 45.9888 6.793 57.3288 18.3383 57.3288 32.581 C 57.3288 46.823 45.9888 58.3689 32.0003 58.3689 C 28.0552 58.3689 24.3243 57.4456 20.996 55.8061 L 20.996 38.3677 L 42.8415 38.3677 L 42.8415 31.0715 L 13.83 31.0715 Z" fill="#272727"/>
</svg>