<?xml version="1.0" standalone="no"?>
<!-- Generator: Adobe Fireworks 10, Export SVG Extension by Aaron Beall (http://fireworks.abeall.com) . Version: 0.6.1  -->
<!DOCTYPE svg PUBLIC "-//W3C//DTD SVG 1.1//EN" "http://www.w3.org/Graphics/SVG/1.1/DTD/svg11.dtd">
<svg id="Untitled-Seite%201" viewBox="0 0 357 14" style="background-color:#FCF7F300" version="1.1"
	xmlns="http://www.w3.org/2000/svg" xmlns:xlink="http://www.w3.org/1999/xlink" xml:space="preserve"
	x="0px" y="0px" width="357px" height="14px"
>
	<path d="M 0.5215 13.7934 L 2.2192 13.7934 L 2.2192 8.6108 C 2.6378 8.6951 3.14 8.712 3.6841 8.712 C 5.4628 8.712 7.0323 8.2903 7.9452 7.4397 C 8.6087 6.6418 8.96 5.5474 8.96 4.1567 C 8.96 2.7888 8.5307 1.6716 7.8086 1.0147 C 7.0114 0.3985 5.693 0.0562 3.8934 0.0562 C 2.4285 0.0562 1.3411 0.1588 0.5215 0.2786 L 0.5215 13.7934 L 0.5215 13.7934 ZM 2.2192 1.398 C 2.5331 1.3068 3.14 1.2373 3.9352 1.2373 C 5.9442 1.2373 7.2622 2.2188 7.2622 4.2479 C 7.2622 6.3682 5.9232 7.5309 3.7259 7.5309 C 3.1191 7.5309 2.6168 7.4853 2.2192 7.3713 L 2.2192 1.398 L 2.2192 1.398 Z" fill="#FCF7F3"/>
	<path d="M 14.8413 13.7934 L 16.5391 13.7934 L 16.5391 8.1242 L 18.255 8.1242 C 19.9082 8.1823 20.6616 8.8618 21.0801 10.6675 C 21.4777 12.2984 21.7772 13.4245 21.9919 13.7934 L 23.7482 13.7934 C 23.475 13.2886 23.1627 12.0266 22.7334 10.2015 C 22.4212 8.8424 21.8162 7.9273 20.7453 7.6052 L 20.7453 7.5515 C 22.187 7.122 23.2798 5.8424 23.2798 3.8433 C 23.2798 2.6752 22.909 1.642 22.2456 1.0257 C 21.4149 0.3559 20.1593 0.0562 18.2132 0.0562 C 16.9576 0.0562 15.7 0.1443 14.8413 0.303 L 14.8413 13.7934 L 14.8413 13.7934 ZM 16.5391 1.4173 C 16.832 1.3275 17.4598 1.2373 18.3387 1.2373 C 20.264 1.2601 21.582 2.1137 21.582 4.0679 C 21.582 5.7975 20.3477 6.9431 18.4015 6.9431 L 16.5391 6.9431 L 16.5391 1.4173 L 16.5391 1.4173 Z" fill="#FCF7F3"/>
	<path d="M 34.6972 0.0562 C 31.0634 0.0562 28.5386 2.6502 28.5386 7.0273 C 28.5386 11.1998 30.9019 13.7513 34.4953 13.7513 C 37.9676 13.7513 40.6734 11.5066 40.6734 6.7614 C 40.6734 2.6707 38.4117 0.0562 34.6972 0.0562 L 34.6972 0.0562 ZM 34.6164 1.2373 C 37.5437 1.2373 38.9561 4.1024 38.9561 6.8432 C 38.9561 9.9726 37.3822 12.5702 34.5962 12.5702 C 31.8305 12.5702 30.2559 9.9317 30.2559 6.9864 C 30.2559 3.9592 31.7094 1.2373 34.6164 1.2373 L 34.6164 1.2373 Z" fill="#FCF7F3"/>
	<path d="M 48.3736 13.7934 L 50.0909 13.7934 L 50.0909 1.2373 L 54.1109 1.2373 L 54.1109 0.0562 L 44.3731 0.0562 L 44.3731 1.2373 L 48.3736 1.2373 L 48.3736 13.7934 L 48.3736 13.7934 Z" fill="#FCF7F3"/>
	<path d="M 64.5624 0.0562 C 60.9286 0.0562 58.4039 2.6502 58.4039 7.0273 C 58.4039 11.1998 60.7671 13.7513 64.3606 13.7513 C 67.8329 13.7513 70.5386 11.5066 70.5386 6.7614 C 70.5386 2.6707 68.277 0.0562 64.5624 0.0562 L 64.5624 0.0562 ZM 64.4817 1.2373 C 67.4089 1.2373 68.8214 4.1024 68.8214 6.8432 C 68.8214 9.9726 67.2474 12.5702 64.4615 12.5702 C 61.6958 12.5702 60.1211 9.9317 60.1211 6.9864 C 60.1211 3.9592 61.5747 1.2373 64.4817 1.2373 L 64.4817 1.2373 Z" fill="#FCF7F3"/>
	<path d="M 78.2388 13.7934 L 79.9561 13.7934 L 79.9561 1.2373 L 83.9761 1.2373 L 83.9761 0.0562 L 74.2384 0.0562 L 74.2384 1.2373 L 78.2388 1.2373 L 78.2388 13.7934 L 78.2388 13.7934 Z" fill="#FCF7F3"/>
	<path d="M 94.8887 13.7934 L 94.8887 7.9259 L 99.299 0.0141 L 97.3671 0.0141 L 95.4742 3.8167 C 94.9668 4.8593 94.518 5.7589 94.1472 6.6584 L 94.1082 6.6584 C 93.6984 5.6976 93.3081 4.8593 92.8007 3.8167 L 90.9468 0.0141 L 89.0149 0.0141 L 93.1715 7.9464 L 93.1715 13.7934 L 94.8887 13.7934 L 94.8887 13.7934 Z" fill="#FCF7F3"/>
	<path d="M 104.4371 13.7934 L 106.1348 13.7934 L 106.1348 8.6108 C 106.5534 8.6951 107.0556 8.712 107.5997 8.712 C 109.3784 8.712 110.9479 8.2903 111.8608 7.4397 C 112.5243 6.6418 112.8756 5.5474 112.8756 4.1567 C 112.8756 2.7888 112.4463 1.6716 111.7242 1.0147 C 110.927 0.3985 109.6086 0.0562 107.809 0.0562 C 106.3441 0.0562 105.2567 0.1588 104.4371 0.2786 L 104.4371 13.7934 L 104.4371 13.7934 ZM 106.1348 1.398 C 106.4487 1.3068 107.0556 1.2373 107.8508 1.2373 C 109.8597 1.2373 111.1778 2.2188 111.1778 4.2479 C 111.1778 6.3682 109.8388 7.5309 107.6415 7.5309 C 107.0347 7.5309 106.5324 7.4853 106.1348 7.3713 L 106.1348 1.398 L 106.1348 1.398 Z" fill="#FCF7F3"/>
	<path d="M 125.5675 6.3132 L 120.4547 6.3132 L 120.4547 1.2373 L 125.8602 1.2373 L 125.8602 0.0562 L 118.7569 0.0562 L 118.7569 13.7513 L 126.1529 13.7513 L 126.1529 12.5702 L 120.4547 12.5702 L 120.4547 7.4943 L 125.5675 7.4943 L 125.5675 6.3132 L 125.5675 6.3132 Z" fill="#FCF7F3"/>
	<path d="M 241.0569 6.9431 L 236.6632 6.9431 L 236.6632 8.1242 L 239.3981 8.1242 L 239.3981 12.2048 C 238.9979 12.4078 238.2197 12.5702 237.0823 12.5702 C 233.9495 12.5702 231.8942 10.5199 231.8942 7.2301 C 231.8942 3.5288 234.0293 1.2373 237.3018 1.2373 C 238.6586 1.2373 239.5543 1.5296 240.2568 1.889 L 240.6666 0.5578 C 240.1007 0.3314 238.8981 0.0562 237.3417 0.0562 C 232.8321 0.0562 230.1956 2.8999 230.177 7.2976 C 230.177 9.2613 230.8489 11.0883 231.9342 12.2251 C 233.2511 13.3247 234.9272 13.7513 236.9626 13.7513 C 238.7784 13.7513 240.2958 13.3739 241.0569 13.1442 L 241.0569 6.9431 L 241.0569 6.9431 Z" fill="#FCF7F3"/>
	<path d="M 253.9908 6.3132 L 248.8781 6.3132 L 248.8781 1.2373 L 254.2836 1.2373 L 254.2836 0.0562 L 247.1803 0.0562 L 247.1803 13.7513 L 254.5763 13.7513 L 254.5763 12.5702 L 248.8781 12.5702 L 248.8781 7.4943 L 253.9908 7.4943 L 253.9908 6.3132 L 253.9908 6.3132 Z" fill="#FCF7F3"/>
	<path d="M 262.2046 13.7934 L 262.2046 7.9055 C 262.2046 5.4389 262.163 3.7471 262.0582 1.9718 L 262.1211 1.9534 C 262.8066 3.4756 263.7096 5.0839 264.6527 6.6503 L 268.9469 13.7934 L 270.7838 13.7934 L 270.7838 0.1424 L 269.0665 0.1424 L 269.0665 5.606 C 269.0665 7.9712 269.1084 9.657 269.2759 11.5074 L 269.234 11.5279 C 268.5857 10.1093 267.8031 8.6496 266.7997 7.0254 L 262.4655 0.0141 L 260.4873 0.0141 L 260.4873 13.8507 L 262.2046 13.7934 L 262.2046 13.7934 Z" fill="#FCF7F3"/>
	<path d="M 283.6884 6.3132 L 278.5756 6.3132 L 278.5756 1.2373 L 283.9811 1.2373 L 283.9811 0.0562 L 276.8779 0.0562 L 276.8779 13.7513 L 284.2739 13.7513 L 284.2739 12.5702 L 278.5756 12.5702 L 278.5756 7.4943 L 283.6884 7.4943 L 283.6884 6.3132 L 283.6884 6.3132 Z" fill="#FCF7F3"/>
	<path d="M 290.1947 13.7934 L 291.8924 13.7934 L 291.8924 8.1242 L 293.6084 8.1242 C 295.2616 8.1823 296.0149 8.8618 296.4334 10.6675 C 296.8311 12.2984 297.1306 13.4245 297.3452 13.7934 L 299.1015 13.7934 C 298.8283 13.2886 298.5161 12.0266 298.0868 10.2015 C 297.7745 8.8424 297.1696 7.9273 296.0986 7.6052 L 296.0986 7.5515 C 297.5403 7.122 298.6332 5.8424 298.6332 3.8433 C 298.6332 2.6752 298.2624 1.642 297.5989 1.0257 C 296.7683 0.3559 295.5127 0.0562 293.5665 0.0562 C 292.3109 0.0562 291.0533 0.1443 290.1947 0.303 L 290.1947 13.7934 L 290.1947 13.7934 ZM 291.8924 1.4173 C 292.1854 1.3275 292.8132 1.2373 293.6921 1.2373 C 295.6173 1.2601 296.9354 2.1137 296.9354 4.0679 C 296.9354 5.7975 295.701 6.9431 293.7549 6.9431 L 291.8924 6.9431 L 291.8924 1.4173 L 291.8924 1.4173 Z" fill="#FCF7F3"/>
	<path d="M 311.2284 9.384 L 312.6267 13.7934 L 314.4332 13.7934 L 309.9661 0.0141 L 307.9268 0.0141 L 303.4795 13.7934 L 305.2273 13.7934 L 306.5868 9.384 L 311.2284 9.384 L 311.2284 9.384 ZM 306.9364 8.2029 L 308.2182 4.1507 C 308.4706 3.0175 308.6843 2.1166 308.8785 1.2373 L 308.9173 1.2373 C 309.1115 2.0946 309.3058 2.9735 309.5971 3.9403 L 310.8788 8.2029 L 306.9364 8.2029 L 306.9364 8.2029 Z" fill="#FCF7F3"/>
	<path d="M 320.4953 13.7934 L 322.2126 13.7934 L 322.2126 1.2373 L 326.2325 1.2373 L 326.2325 0.0562 L 316.4948 0.0562 L 316.4948 1.2373 L 320.4953 1.2373 L 320.4953 13.7934 L 320.4953 13.7934 Z" fill="#FCF7F3"/>
	<path d="M 336.2939 0.0562 C 332.6601 0.0562 330.1353 2.6502 330.1353 7.0273 C 330.1353 11.1998 332.4986 13.7513 336.092 13.7513 C 339.5643 13.7513 342.2701 11.5066 342.2701 6.7614 C 342.2701 2.6707 340.0084 0.0562 336.2939 0.0562 L 336.2939 0.0562 ZM 336.2131 1.2373 C 339.1404 1.2373 340.5528 4.1024 340.5528 6.8432 C 340.5528 9.9726 338.9789 12.5702 336.1929 12.5702 C 333.4272 12.5702 331.8526 9.9317 331.8526 6.9864 C 331.8526 3.9592 333.3061 1.2373 336.2131 1.2373 L 336.2131 1.2373 Z" fill="#FCF7F3"/>
	<path d="M 347.7514 13.7934 L 349.4492 13.7934 L 349.4492 8.1242 L 351.1652 8.1242 C 352.8183 8.1823 353.5717 8.8618 353.9902 10.6675 C 354.3878 12.2984 354.6873 13.4245 354.902 13.7934 L 356.6583 13.7934 C 356.3851 13.2886 356.0728 12.0266 355.6435 10.2015 C 355.3313 8.8424 354.7263 7.9273 353.6554 7.6052 L 353.6554 7.5515 C 355.0971 7.122 356.1899 5.8424 356.1899 3.8433 C 356.1899 2.6752 355.8192 1.642 355.1557 1.0257 C 354.325 0.3559 353.0695 0.0562 351.1233 0.0562 C 349.8677 0.0562 348.6101 0.1443 347.7514 0.303 L 347.7514 13.7934 L 347.7514 13.7934 ZM 349.4492 1.4173 C 349.7422 1.3275 350.37 1.2373 351.2489 1.2373 C 353.1741 1.2601 354.4922 2.1137 354.4922 4.0679 C 354.4922 5.7975 353.2578 6.9431 351.3116 6.9431 L 349.4492 6.9431 L 349.4492 1.4173 L 349.4492 1.4173 Z" fill="#FCF7F3"/>
</svg>