<?xml version="1.0" standalone="no"?>
<!-- Generator: Adobe Fireworks 10, Export SVG Extension by Aaron Beall (http://fireworks.abeall.com) . Version: 0.6.1  -->
<!DOCTYPE svg PUBLIC "-//W3C//DTD SVG 1.1//EN" "http://www.w3.org/Graphics/SVG/1.1/DTD/svg11.dtd">
<svg id="Untitled-Seite%201" viewBox="0 0 70 74" style="background-color:#FCF7F300" version="1.1"
	xmlns="http://www.w3.org/2000/svg" xmlns:xlink="http://www.w3.org/1999/xlink" xml:space="preserve"
	x="0px" y="0px" width="70px" height="74px"
>
	<g id="Ebene%201">
		<path d="M 15.9923 34.3901 L 15.9923 34.3901 L 15.9923 64.8284 C 21.4859 68.7334 28.1476 71.0242 35.333 71.0242 C 54.1447 71.0242 69.3943 55.349 69.3943 36.0122 C 69.3943 16.6751 54.1447 1 35.333 1 C 16.9516 1 1.9788 15.9689 1.3038 34.6946 L 1.2715 34.6946 L 1.2715 73 L 8.3647 73 L 8.3647 35.8295 L 8.3772 35.8295 C 8.4736 20.609 20.5033 8.2999 35.333 8.2999 C 50.2226 8.2999 62.2933 20.7068 62.2933 36.0122 C 62.2933 51.3174 50.2226 63.7248 35.333 63.7248 C 31.1338 63.7248 27.1627 62.732 23.6199 60.9702 L 23.6199 42.2307 L 46.8726 42.2307 L 46.8726 34.3901 L 15.9923 34.3901 Z" stroke="#1c1d1b" stroke-width="1" fill="#FCF7F3"/>
	</g>
</svg>